<svg width="25" height="25" viewBox="0 0 25 25" fill="none" xmlns="http://www.w3.org/2000/svg">
<path d="M12.5 1.5625C13.684 1.5625 14.8195 1.97405 15.6567 2.70661C16.4939 3.43918 16.9643 4.43275 16.9643 5.46875V6.25H8.03571V5.46875C8.03571 4.43275 8.50606 3.43918 9.34327 2.70661C10.1805 1.97405 11.316 1.5625 12.5 1.5625ZM18.75 6.25V5.46875C18.75 4.01835 18.0915 2.62735 16.9194 1.60176C15.7473 0.57617 14.1576 0 12.5 0C10.8424 0 9.25269 0.57617 8.08058 1.60176C6.90848 2.62735 6.25 4.01835 6.25 5.46875V6.25H0V21.875C0 22.7038 0.376274 23.4987 1.04605 24.0847C1.71582 24.6708 2.62423 25 3.57143 25H21.4286C22.3758 25 23.2842 24.6708 23.954 24.0847C24.6237 23.4987 25 22.7038 25 21.875V6.25H18.75Z" fill="white"/>
</svg>
